<?xml version="1.0" encoding="UTF-8" standalone="no"?>
<!-- Created with Inkscape (http://www.inkscape.org/) -->

<svg
   xmlns:dc="http://purl.org/dc/elements/1.1/"
   xmlns:cc="http://creativecommons.org/ns#"
   xmlns:rdf="http://www.w3.org/1999/02/22-rdf-syntax-ns#"
   xmlns:svg="http://www.w3.org/2000/svg"
   xmlns="http://www.w3.org/2000/svg"
   xmlns:sodipodi="http://sodipodi.sourceforge.net/DTD/sodipodi-0.dtd"
   xmlns:inkscape="http://www.inkscape.org/namespaces/inkscape"
   width="210mm"
   height="297mm"
   viewBox="0 0 210 297"
   version="1.1"
   id="svg8"
   inkscape:version="0.92.4 (5da689c313, 2019-01-14)"
   sodipodi:docname="KanckelibangLogo.svg">
  <defs
     id="defs2" />
  <sodipodi:namedview
     id="base"
     pagecolor="#ffffff"
     bordercolor="#666666"
     borderopacity="1.0"
     inkscape:pageopacity="0.0"
     inkscape:pageshadow="2"
     inkscape:zoom="2.8"
     inkscape:cx="405.655"
     inkscape:cy="918.61596"
     inkscape:document-units="mm"
     inkscape:current-layer="layer1"
     showgrid="false"
     inkscape:window-width="1118"
     inkscape:window-height="1064"
     inkscape:window-x="1288"
     inkscape:window-y="135"
     inkscape:window-maximized="0" />
  <metadata
     id="metadata5">
    <rdf:RDF>
      <cc:Work
         rdf:about="">
        <dc:format>image/svg+xml</dc:format>
        <dc:type
           rdf:resource="http://purl.org/dc/dcmitype/StillImage" />
        <dc:title></dc:title>
      </cc:Work>
    </rdf:RDF>
  </metadata>
  <g
     inkscape:label="Layer 1"
     inkscape:groupmode="layer"
     id="layer1">
    <flowRoot
       xml:space="preserve"
       id="flowRoot10"
       style="fill:black;fill-opacity:1;stroke:none;font-family:sans-serif;font-style:normal;font-weight:normal;font-size:40px;line-height:1.25;letter-spacing:0px;word-spacing:0px"><flowRegion
         id="flowRegion12"><rect
           id="rect14"
           width="742.85712"
           height="294.28571"
           x="28.571428"
           y="36.805401" /></flowRegion><flowPara
         id="flowPara16"></flowPara></flowRoot>    <path
       style="fill:#5f8dd3;stroke-width:0.25399998"
       d="m 160.05446,71.937762 c -0.2794,-0.16826 -1.40231,-1.22819 -2.49535,-2.35539 l -1.98735,-2.04947 0.16124,-1.25654 c 0.21863,-1.70378 0.51257,-2.20062 0.7477,-1.26379 0.27136,1.08117 4.38489,4.93333 5.26806,4.93333 0.97479,0 1.11419,-0.4214 0.28251,-0.85405 -0.38875,-0.20222 -0.99256,-0.67377 -1.34181,-1.04788 -0.53175,-0.56962 -0.63356,-0.92394 -0.62615,-2.17928 0.0111,-1.87961 0.44448,-2.44589 0.87457,-1.14272 0.45044,1.36485 1.41696,2.36577 3.10952,3.22017 1.46331,0.73868 1.53396,0.74941 2.1886,0.33259 2.99465,-1.90678 4.78337,-4.0172 6.00099,-7.08029 0.57715,-1.45188 0.6745,-2.00216 0.54666,-3.08989 -0.19775,-1.68248 -0.29215,-1.89946 -1.07602,-2.47312 -0.59459,-0.43513 -0.79816,-0.44647 -2.64143,-0.14713 -2.42216,0.39335 -2.78874,0.20865 -2.78874,-1.40512 0,-2.68241 4.72832,-7.49026 7.3758,-7.49986 0.21493,-7.6e-4 0.82565,-0.22312 1.35715,-0.49409 0.5315,-0.27098 1.58293,-0.56972 2.33651,-0.66387 2.43051,-0.30367 3.91654,0.26749 3.91654,1.50535 0,0.47331 0.14626,0.57066 0.889,0.59171 0.8103,0.023 0.889,-0.0378 0.889,-0.68588 0,-1.40623 1.86091,-8.097513 3.6028,-12.954635 2.55246,-7.117306 8.73326,-20.749018 9.52799,-21.01393 0.16325,-0.05442 0.41075,0.113952 0.55001,0.37415 0.2591,0.484137 -0.0483,1.279497 -5.22921,13.52778 -3.22276,7.619057 -5.50898,15.036533 -6.31211,20.479185 -0.44329,3.00414 -0.748,3.58001 -1.95788,3.7002 -0.72545,0.0721 -0.83177,0.21744 -1.48992,2.03726 l -0.70872,1.95965 0.63691,-0.29019 c 0.88476,-0.40313 1.47559,0.2121 1.42768,1.48662 -0.0432,1.14992 -0.38069,1.50281 -1.65183,1.72736 -0.8823,0.15586 -0.9471,0.12979 -0.7221,-0.29063 0.13595,-0.25403 0.18577,-0.78309 0.11072,-1.1757 -0.11798,-0.61716 -0.48003,-0.0492 -2.67331,4.1937 -4.16223,8.05185 -5.5766,9.82558 -8.28284,10.3874 -0.78246,0.16243 -2.0632,0.22839 -2.84609,0.14656 -1.06787,-0.11161 -1.74346,-0.0272 -2.70458,0.33802 -1.70875,0.64927 -3.61938,0.86093 -4.26452,0.47242 z m 10.69199,-3.42793 c 0.9514,-0.62338 2.56638,-3.05181 4.87261,-7.32693 2.14255,-3.97169 3.19564,-6.21642 3.00554,-6.40653 -0.0614,-0.0614 -0.32144,-7.6e-4 -0.57788,0.13451 -0.25644,0.13538 -1.1291,0.38251 -1.93923,0.54918 l -1.47298,0.30304 0.20298,1.1859 c 0.34342,2.00647 0.2028,3.13823 -0.65036,5.23439 -0.87862,2.15874 -2.88022,5.07881 -4.18793,6.10967 -0.60639,0.47801 -0.69068,0.63189 -0.3473,0.63403 0.24939,0.001 0.74194,-0.18622 1.09455,-0.41726 z m 5.43701,-15.12622 c 1.65609,-0.39845 2.6548,-1.07982 3.53871,-2.41428 0.87128,-1.31539 0.96101,-2.03325 0.39177,-3.13404 -0.44298,-0.85663 -0.40488,-0.84999 -2.57994,-0.44922 -1.50921,0.27808 -1.69112,0.38552 -2.47293,1.4605 -1.69081,2.32487 -2.33454,4.33524 -1.53197,4.78438 0.45005,0.25186 0.66142,0.23217 2.65436,-0.24734 z m -6.21027,-0.23141 c 1.02731,-0.25868 1.15159,-0.37617 1.40898,-1.33207 0.15527,-0.5766 0.5013,-1.47764 0.76896,-2.0023 0.26766,-0.52466 0.39503,-0.95393 0.28304,-0.95393 -0.28341,0 -2.92805,2.77131 -3.44553,3.61057 -0.67351,1.09231 -0.67039,1.09445 0.98455,0.67773 z m -69.94303,14.0632 c -0.147909,-0.38417 -0.340579,-1.06207 -0.428139,-1.50644 -0.0876,-0.44438 -0.32331,-0.94415 -0.523885,-1.11061 -0.279265,-0.23177 -0.364673,-1.00591 -0.364673,-3.30541 0,-1.65152 -0.184297,-4.92365 -0.409549,-7.2714 -0.590941,-6.1592 -0.30482,-11.668745 0.953757,-18.365635 0.65283,-3.473699 2.197259,-7.569317 2.946029,-7.812458 0.36322,-0.117946 0.28126,0.49079 -0.48298,3.587374 -0.2712,1.098852 -0.43972,2.051288 -0.37449,2.116523 0.0652,0.06524 0.37212,-0.576654 0.68196,-1.426416 0.54252,-1.487916 1.11163,-1.966112 1.41111,-1.185682 0.0758,0.197638 -0.20103,1.426363 -0.61527,2.7305 -0.41424,1.304138 -0.88117,3.171259 -1.03763,4.149159 -0.60416,3.776065 -1.03109,24.481655 -0.57733,27.999755 0.20294,1.57344 0.05,2.09924 -0.61059,2.09924 -0.16466,0 -0.42041,-0.31432 -0.56832,-0.6985 z m -14.456195,-0.94807 c -0.943368,-0.41011 -1.779427,-1.63826 -1.991479,-2.92543 -0.08055,-0.48895 -0.412666,-1.51765 -0.73803,-2.286 -0.325366,-0.76835 -0.726823,-2.22273 -0.892129,-3.23196 -0.254749,-1.55531 -0.236604,-2.1166 0.119083,-3.683 0.512633,-2.25757 1.581287,-4.42008 2.99579,-6.06222 1.145502,-1.32984 1.715038,-1.5395 5.17118,-1.90361 1.980278,-0.20862 3.158358,0.17148 4.015842,1.2957 0.735637,0.96447 1.218255,2.98206 0.906427,3.78934 -0.321028,0.83111 -1.760731,2.5244 -2.462106,2.89578 -0.352148,0.18646 -1.457426,0.39546 -2.456175,0.46443 -1.503746,0.10385 -1.987578,0.0353 -2.814579,-0.39868 -0.54927,-0.28825 -1.047968,-0.4748 -1.108217,-0.41455 -0.329953,0.32995 -1.135207,3.82131 -1.247452,5.40861 l -0.130315,1.84283 0.962744,0.40226 c 0.884959,0.36976 1.14886,0.3666 3.266328,-0.0391 2.308268,-0.44227 5.635414,-1.40392 6.66004,-1.92496 1.252629,-0.63699 1.085933,0.0122 -0.500416,1.94887 -2.401793,2.93218 -4.457994,4.37958 -6.980039,4.91339 -1.663177,0.35202 -1.763453,0.3487 -2.776497,-0.0917 z m 4.376499,-2.28935 c 0.6985,-0.31801 1.4986,-0.7686 1.778,-1.00129 l 0.508,-0.42309 -0.508,0.12343 c -2.307209,0.56057 -4.844956,0.92718 -5.469161,0.79008 -0.883199,-0.19398 -0.956483,0.0695 -0.234793,0.84413 0.433627,0.46545 0.694881,0.53145 1.5875,0.40104 0.58765,-0.0859 1.639954,-0.41629 2.338454,-0.7343 z m -5.716808,-9.70553 c 0.634629,-2.36436 0.552196,-3.48112 -0.09925,-1.34455 -0.443499,1.45457 -0.832947,3.77671 -0.596379,3.556 0.07487,-0.0699 0.387901,-1.065 0.695629,-2.21145 z m 7.577459,-2.51834 c 0.513703,-0.3366 0.576999,-0.52848 0.436875,-1.32441 -0.169537,-0.96303 -1.101763,-1.971 -2.05344,-2.2203 -0.967387,-0.25341 -1.847474,0.32344 -2.52084,1.65226 -0.804467,1.58754 -0.801881,1.69106 0.05425,2.17421 0.846851,0.4779 3.168236,0.31771 4.083151,-0.28176 z m 25.707285,13.63649 c -0.14461,-0.27021 -0.26293,-1.22591 -0.26293,-2.12378 0,-1.5687 -0.0229,-1.62809 -0.58695,-1.52027 -1.10183,0.21063 -1.31408,-0.45322 -0.85194,-2.66454 0.22565,-1.07971 0.75467,-4.42056 1.17561,-7.42411 1.49432,-10.662669 2.30827,-16.087154 2.66312,-17.748159 0.19774,-0.925561 0.4335,-2.140036 0.52391,-2.698836 0.2729,-1.686634 1.03886,-3.175 1.63396,-3.175 0.63146,0 0.68604,0.643945 0.14285,1.685465 -0.20869,0.400144 -0.38014,1.034387 -0.381,1.409428 -7.6e-4,0.375044 -0.17673,1.514617 -0.39083,2.53239 -0.21409,1.017773 -0.61613,3.797021 -0.89341,6.176107 -0.27729,2.379085 -0.5555,4.497059 -0.61825,4.706609 -0.14616,0.488092 -1.40107,9.933546 -1.40107,10.545556 0,0.25361 0.0572,0.40391 0.12711,0.33399 0.12799,-0.12798 2.003,-8.80631 2.93195,-13.570251 0.27495,-1.410038 0.77953,-3.49791 1.12129,-4.639717 0.34175,-1.141803 0.69853,-2.757987 0.79283,-3.591519 0.2002,-1.769491 0.71418,-2.420351 1.29627,-1.64147 0.46829,0.626598 0.2997,2.209302 -0.55362,5.197412 -0.3391,1.18745 -0.97533,4.139724 -1.41383,6.560611 -0.4385,2.420884 -1.00029,5.392684 -1.24841,6.604004 -0.24812,1.21131 -0.41354,2.2445 -0.3676,2.29598 0.0459,0.0515 0.86056,-0.58968 1.81027,-1.42479 3.03603,-2.66968 4.96046,-3.45976 6.35759,-2.61011 2.80787,1.70757 2.44774,10.70183 -0.54428,13.5933 -1.7578,1.69873 -5.45043,3.17564 -6.98,2.79175 -0.34267,-0.086 -1.0034,-0.57164 -1.4683,-1.0792 l -0.84527,-0.92282 v 1.14184 c 0,0.62801 -0.13716,1.27899 -0.3048,1.44663 -0.45768,0.45768 -1.16793,0.36721 -1.46427,-0.1865 z m 7.70065,-3.01528 c 1.93406,-0.91171 2.8059,-1.77396 3.32036,-3.28381 0.21921,-0.64337 0.36532,-1.20301 0.32468,-1.24365 -0.0406,-0.0406 -0.58324,0.26534 -1.20577,0.67997 -2.41052,1.60553 -5.32767,2.21725 -6.53634,1.37067 -0.52118,-0.36505 -0.56451,-0.36005 -0.56451,0.0652 0,0.71764 0.44839,2.10642 0.90518,2.80357 0.35095,0.53563 0.55171,0.6108 1.30487,0.48857 0.48956,-0.0794 1.59274,-0.47566 2.45153,-0.88049 z m -4.91558,-3.09742 c 0,-0.1397 -0.0504,-0.254 -0.11201,-0.254 -0.0616,0 -0.18265,0.1143 -0.26899,0.254 -0.0863,0.1397 -0.0359,0.254 0.112,0.254 0.14795,0 0.269,-0.1143 0.269,-0.254 z m 5.52161,-2.01711 c 0.84411,-0.4499 1.83551,-1.13194 2.20311,-1.51564 l 0.66839,-0.69764 -0.90619,-1.1868 c -0.49841,-0.65275 -1.05281,-1.18681 -1.23201,-1.18681 -0.47356,0 -2.36335,1.30463 -3.94139,2.72095 l -1.36948,1.22914 0.41163,0.79601 c 0.2264,0.4378 0.55692,0.84473 0.73448,0.90427 0.55236,0.18523 1.83371,-0.21189 3.43146,-1.06348 z m 2.83268,-5.96487 c -0.24692,-0.68285 -0.47316,-0.90802 -0.91232,-0.90802 -0.32119,0 -0.58397,0.0539 -0.58397,0.11982 0,0.17477 1.6352,1.82742 1.73781,1.75635 0.0478,-0.0331 -0.0609,-0.46874 -0.24152,-0.96815 z m -20.63096,13.90865 c -0.24588,-0.24588 -0.20744,-1.47537 0.0688,-2.20207 0.18857,-0.49598 0.1356,-0.71933 -0.2543,-1.07218 -0.4212,-0.38118 -0.48379,-0.74326 -0.43247,-2.50155 0.033,-1.13073 0.0223,-3.81094 -0.0238,-5.95604 -0.0461,-2.14509 0.0189,-4.00289 0.14444,-4.12845 0.13504,-0.13504 0.41925,-0.0886 0.69585,0.11362 0.38452,0.28117 0.48968,0.80122 0.5921,2.92813 0.0685,1.42243 0.19946,2.63254 0.29103,2.68913 0.0916,0.0566 0.31071,-0.83201 0.48699,-1.97468 0.32142,-2.08343 0.74321,-2.81666 1.46169,-2.54096 0.42038,0.16132 0.44681,0.69774 0.10713,2.17424 -0.46716,2.03064 -1.06622,5.90462 -1.27036,8.21514 -0.25259,2.85882 -1.1709,4.9519 -1.86712,4.25567 z m -40.918192,-0.48381 c -0.21953,-0.21953 -0.399143,-0.54843 -0.399143,-0.7309 0,-0.18246 -0.1543,-0.45981 -0.342887,-0.61633 -0.689562,-0.57228 0.196171,-8.64228 1.871299,-17.04963 0.542778,-2.724146 1.170221,-5.967294 1.394318,-7.206992 0.692393,-3.830271 2.486103,-8.795003 3.17755,-8.795003 0.331665,0 0.330133,0.0076 -0.276601,1.379258 -0.59435,1.343627 -1.828973,6.002116 -1.640635,6.190455 0.147237,0.147233 0.29363,-0.214915 1.16045,-2.870713 0.467373,-1.431948 0.798678,-2.058132 1.121928,-2.120491 0.252288,-0.04867 0.542092,0.04643 0.644012,0.21134 0.203449,0.329187 -0.588238,3.204032 -1.639034,5.951817 -1.227559,3.210006 -3.299096,12.344179 -2.718099,11.985109 0.138361,-0.0855 0.9684,-1.32645 1.844532,-2.75763 2.560587,-4.182765 3.322826,-4.957592 4.493252,-4.56745 0.466941,0.155646 0.3681,1.069205 -0.136585,1.262425 -0.456398,0.174725 -1.309967,1.070215 -1.32505,1.390115 -0.0046,0.0986 0.463121,0.0129 1.039485,-0.1905 0.576364,-0.20336 1.205014,-0.36974 1.397,-0.36974 0.502336,0 0.430413,0.49873 -0.09544,0.66175 -1.920201,0.5953 -6.159499,5.64914 -6.159499,7.34299 0,0.2209 0.288805,0.65332 0.641789,0.96095 0.352984,0.30762 1.187346,1.47371 1.854137,2.59131 0.916256,1.53573 1.439321,2.13984 2.141692,2.47355 0.511142,0.24285 1.058497,0.68287 1.216347,0.97781 0.206754,0.38632 0.459961,0.50321 0.905582,0.41802 1.47257,-0.2815 0.842004,1.10865 -0.784667,1.72988 -1.418611,0.54177 -2.92449,0.40387 -4.593694,-0.42066 -1.209076,-0.59724 -2.718351,-1.89691 -3.359094,-2.8926 -0.274275,-0.4262 -0.307556,-0.0739 -0.2067,2.1879 0.08131,1.82358 0.02683,2.78928 -0.168392,2.9845 -0.384996,0.385 -0.583011,0.36431 -1.057857,-0.11054 z m 5.68561,-4.31341 c -0.180099,-0.217 -0.79417,-1.20988 -1.364603,-2.2064 -1.05491,-1.84287 -1.885373,-2.60498 -1.55782,-1.4296 0.539275,1.93513 0.982955,2.73725 1.858726,3.36038 1.048187,0.74579 1.565057,0.87972 1.063697,0.27562 z m -17.419917,3.46342 c -0.576491,-0.26178 -1.11935,-0.59115 -1.206355,-0.73193 -0.09959,-0.16113 -0.793422,-0.0318 -1.872836,0.3492 -2.604421,0.91918 -4.870231,0.72162 -5.895009,-0.51402 -0.203703,-0.24561 -0.610931,-1.603 -0.904954,-3.01642 l -0.534589,-2.56985 -1.046314,1.51658 c -1.783484,2.58506 -2.619939,3.32826 -4.104163,3.64657 -1.571472,0.33702 -2.227348,0.0895 -2.466848,-0.93083 -0.08922,-0.38014 -0.483743,-1.03407 -0.876701,-1.45317 -0.920526,-0.98176 -1.178847,-2.76837 -0.741898,-5.13116 0.378424,-2.04632 0.7166,-2.76843 2.204417,-4.70711 1.959341,-2.55309 3.910086,-3.48332 7.405157,-3.53123 0.746757,-0.0102 1.476535,0.10018 1.621726,0.24537 0.182652,0.18265 0.451099,0.14139 0.871268,-0.13391 0.555506,-0.36399 0.648112,-0.36096 1.086186,0.0355 0.773668,0.70016 0.500212,2.3461 -0.738947,4.44772 -1.201288,2.03739 -1.354773,2.80643 -0.999561,5.00837 0.26433,1.63858 0.456928,2.11053 1.194435,2.92686 0.483608,0.5353 1.150383,1.04131 1.481719,1.12447 0.869924,0.21833 0.740366,0.55523 -0.287688,0.74809 -0.625074,0.11727 -1.07887,0.0433 -1.524,-0.24834 -0.593708,-0.38901 -0.633634,-0.38679 -0.629991,0.035 0.01036,1.19825 0.910882,1.54457 3.67511,1.41335 1.255098,-0.0596 2.326716,-0.15305 2.381375,-0.20771 0.05466,-0.0547 -0.0983,-1.19724 -0.339901,-2.53908 -0.790163,-4.38848 0.02037,-6.55799 3.888072,-10.40688 2.431339,-2.41953 3.269775,-2.9175 4.917963,-2.92091 0.779653,-0.002 1.063455,0.31335 0.859033,0.95336 -0.102248,0.32012 -0.422267,0.44564 -1.159058,0.45459 -0.559798,0.007 -1.155123,0.14967 -1.322948,0.3175 -0.237513,0.23751 -0.0654,0.30513 0.776655,0.30513 1.431669,0 1.173313,0.31388 -0.733592,0.89124 -1.294819,0.39204 -1.674503,0.6443 -2.264367,1.50439 -1.289406,1.88012 -2.304618,4.18737 -2.494229,5.66856 -0.309154,2.41503 -0.163866,2.97557 0.964832,3.72251 1.842731,1.21946 3.762443,0.79523 5.913942,-1.3069 1.205055,-1.1774 1.462022,-1.33891 1.317104,-0.8278 -0.09902,0.34925 -0.401551,1.02088 -0.672284,1.49251 -0.270731,0.47164 -0.437922,0.91183 -0.371534,0.97822 0.06639,0.0664 0.719351,-0.43379 1.451026,-1.11151 1.261689,-1.16865 1.305131,-1.18809 0.842114,-0.3769 -0.268511,0.47042 -1.258791,1.63711 -2.200618,2.59265 -1.476369,1.49785 -1.943968,1.80885 -3.392256,2.25618 -2.060559,0.63644 -2.728346,0.64165 -4.071493,0.0317 z m -13.402223,-6.02365 c 1.18137,-1.03718 1.83844,-1.86819 2.388535,-3.02081 0.41737,-0.87452 0.758853,-1.79329 0.758853,-2.04172 0,-0.24843 0.151661,-0.63213 0.337025,-0.85269 0.305897,-0.36396 1.186975,-3.20408 1.186975,-3.82616 0,-0.33483 -1.445418,-0.33647 -1.652204,-0.002 -0.087,0.14077 0.02055,0.43469 0.239009,0.65314 0.365679,0.36568 0.564114,1.37691 0.270195,1.37691 -0.06985,0 -0.368869,-0.24187 -0.664489,-0.53749 -0.740507,-0.7405 -2.289627,-0.52907 -3.323512,0.45362 -1.705584,1.62102 -2.996999,4.96563 -2.996999,7.76177 v 1.46599 h 0.913466 c 0.747636,0 1.209311,-0.25974 2.543146,-1.43078 z m 115.934692,3.8574 c -0.37658,-0.45374 -0.21606,-3.02986 0.40028,-6.42387 0.20897,-1.15074 0.34472,-2.57949 0.30168,-3.175 l -0.0783,-1.08275 -1.22478,1.85074 c -1.69182,2.55647 -2.54949,4.50486 -2.7062,6.14776 -0.14233,1.49212 -0.63207,1.91234 -1.4437,1.23874 -0.33007,-0.27394 -0.37022,-0.71789 -0.23734,-2.62447 0.14659,-2.10328 0.12852,-2.24178 -0.21652,-1.65977 -0.20705,0.34925 -0.38051,0.82103 -0.38545,1.0484 -0.0132,0.60507 -0.66868,1.05031 -1.26682,0.86047 -0.46364,-0.14715 -0.51773,-0.36342 -0.49764,-1.98948 0.0436,-3.52392 0.59709,-8.88984 0.92839,-8.99981 0.5168,-0.17154 0.76236,0.92663 0.8071,3.60937 0.0232,1.39148 0.0882,2.57594 0.14439,2.63215 0.161,0.161 1.14131,-1.53766 1.29336,-2.2411 0.0755,-0.34925 0.30099,-1.00883 0.50112,-1.46574 0.29744,-0.67907 0.46974,-0.80417 0.94372,-0.68521 0.41453,0.10404 0.75152,-0.0372 1.18196,-0.49539 0.90563,-0.96399 2.17056,-1.31044 2.94113,-0.80554 0.33903,0.22214 1.06376,0.40388 1.61053,0.40388 1.05757,0 1.27524,0.2775 1.68965,2.15409 0.25926,1.174 0.14495,9.03206 -0.14716,10.1169 -0.22907,0.85069 -0.34367,0.95848 -0.94521,0.88904 -0.5766,-0.0666 -0.69889,-0.21919 -0.77563,-0.96803 l -0.0911,-0.889 -0.67535,1.397 c -0.71482,1.47868 -1.44385,1.88957 -2.05214,1.15662 z m 2.68311,-5.15712 c 0.39771,-0.52391 0.48874,-6.06049 0.1095,-6.66014 -0.39514,-0.62481 -0.50323,-0.18234 -0.2408,0.98567 0.2311,1.02855 0.0217,3.69691 -0.43193,5.50438 -0.18084,0.72053 0.0845,0.80068 0.56323,0.17009 z m -4.7354,-4.49472 c 0.58669,-0.90047 1.36038,-1.9309 1.71933,-2.28984 0.35894,-0.35895 0.59275,-0.7125 0.51958,-0.78568 -0.31938,-0.31938 -3.49681,3.67196 -3.49898,4.39524 -0.002,0.53913 0.1577,0.37228 1.26007,-1.31972 z m -124.701048,9.389 c -0.173848,-0.20947 -0.27017,-0.8173 -0.217328,-1.37142 0.09382,-0.98383 0.08602,-0.99375 -0.683148,-0.86893 -1.011055,0.16407 -1.446065,-0.36097 -1.34238,-1.6202 0.05692,-0.69123 0.19399,-0.96237 0.476679,-0.9429 0.306741,0.0211 0.471008,-0.45644 0.723816,-2.10432 0.179868,-1.1724 0.48573,-2.72775 0.679697,-3.45632 0.404144,-1.51803 0.457522,-3.18819 0.118999,-3.72324 -0.465928,-0.73642 -1.388542,0.13352 -2.979283,2.80918 -1.757781,2.95662 -2.553338,4.77249 -2.991601,6.82837 l -0.297805,1.397 -1.251265,-0.0826 c -0.688196,-0.0454 -1.394404,-0.20137 -1.56935,-0.34656 -0.374806,-0.31106 -0.20931,-1.17901 0.491438,-2.57737 1.369629,-2.73313 2.78277,-8.97321 2.554712,-11.28099 -0.137922,-1.395669 0.16668,-1.773974 0.616562,-0.765749 0.235713,0.528254 0.265721,0.501747 0.431324,-0.381 0.133457,-0.711383 0.302204,-0.948751 0.674477,-0.948751 0.416173,0 0.495048,0.174633 0.487568,1.0795 -0.0049,0.593725 -0.172342,1.82245 -0.372077,2.7305 -0.199736,0.90805 -0.36717,1.9779 -0.372077,2.37744 -0.0084,0.68102 0.0613,0.63336 1.114016,-0.762 2.412446,-3.197662 4.149862,-4.624329 5.218526,-4.28515 0.912686,0.289677 1.336487,2.98235 0.776633,4.93445 -0.136345,0.4754 -0.305183,2.132 -0.375196,3.68132 -0.445557,9.85994 -0.470543,10.05594 -1.281902,10.05594 -0.175339,0 -0.459303,-0.1693 -0.631035,-0.37622 z m 106.369608,-0.27125 c -0.49179,-0.26695 -0.73235,-0.64356 -0.84529,-1.32333 -0.26215,-1.57788 -0.20928,-1.53971 -1.94116,-1.4017 -1.40174,0.1117 -1.6671,0.0603 -2.08526,-0.40353 -1.06055,-1.17648 -0.27861,-4.43873 1.73198,-7.22584 0.70794,-0.98135 1.58248,-2.00162 1.94344,-2.26727 0.79237,-0.58316 4.40076,-1.13944 4.8753,-0.75159 0.19685,0.16088 0.81109,0.17368 1.67889,0.035 2.26734,-0.36236 2.64699,0.14221 1.92301,2.55574 -0.18898,0.63002 -0.18598,0.62941 0.38399,-0.0775 0.41538,-0.51521 0.75974,-0.69106 1.24349,-0.635 0.59231,0.0686 0.67807,0.20284 0.74778,1.17019 0.0433,0.60096 -0.093,1.67843 -0.30284,2.39438 -0.36086,1.23101 -0.35386,1.34065 0.12893,2.01866 0.72864,1.02328 0.44275,1.82211 -0.57231,1.59916 -0.71953,-0.15803 -0.74337,-0.13509 -0.57789,0.55615 0.0949,0.39654 0.21838,0.80297 0.27433,0.90317 0.1484,0.26575 1.66644,-0.0674 2.1302,-0.46758 0.49403,-0.42624 0.99983,-0.0149 0.99983,0.81309 0,0.75039 -0.54631,1.14859 -1.93063,1.40722 -1.22357,0.22858 -1.98907,-0.002 -2.55973,-0.7699 -0.2703,-0.3639 -0.31633,-0.35922 -0.47425,0.0482 -0.26886,0.69363 -2.1085,1.63846 -3.78154,1.94217 -1.90499,0.34581 -2.15045,0.33597 -2.99027,-0.11989 z m 3.94016,-1.91645 c 0.74101,-0.19724 1.13844,-0.52808 1.70212,-1.41691 0.67872,-1.07024 0.72371,-1.28936 0.58384,-2.84388 -0.0834,-0.92635 -0.25839,-1.97004 -0.38897,-2.31929 -0.23671,-0.63312 -0.24049,-0.63125 -1.28561,0.635 -0.57651,0.6985 -1.72045,1.90659 -2.5421,2.68463 l -1.4939,1.41462 0.18236,1.21608 0.18236,1.21607 1.04658,-0.16449 c 0.57562,-0.0905 1.48162,-0.2803 2.01332,-0.42183 z m -5.58017,-2.75432 c 0.40737,-0.15489 0.73636,-0.57705 0.94021,-1.2065 0.5657,-1.74678 1.56063,-3.48392 2.85105,-4.97797 0.69817,-0.80835 1.20063,-1.53849 1.11658,-1.62255 -0.18198,-0.18197 -2.29958,0.36461 -3.25579,0.84037 -1.30201,0.6478 -3.76962,5.14493 -3.76962,6.87 0,0.39364 1.19317,0.4481 2.11757,0.0967 z m 5.43893,-5.17048 c 0.80514,-0.96493 0.94261,-1.19528 0.71335,-1.19528 -0.18472,0 -2.42894,2.99215 -2.41452,3.21921 0.007,0.11539 0.20735,-0.0702 0.4445,-0.4124 0.23714,-0.34221 0.80265,-1.0674 1.25667,-1.61153 z m -122.745493,8.41431 c -0.2794,-0.15453 -0.771195,-0.51953 -1.092878,-0.81112 -0.470744,-0.4267 -0.626513,-0.46279 -0.798237,-0.18493 -0.33487,0.54183 -1.476803,0.11536 -1.904211,-0.71116 -0.206562,-0.39945 -0.623541,-1.68367 -0.926621,-2.85382 -0.64115,-2.4754 -1.853847,-5.74797 -2.618188,-7.0654 -0.865644,-1.49204 -1.3995066,-2.15518 -1.5853866,-1.9693 -0.09581,0.0958 -0.310997,1.72451 -0.4781868,3.61932 -0.3154057,3.5746 -0.558107,4.25751 -1.3347819,3.75578 -0.3607274,-0.23303 -0.4269262,-0.62207 -0.3772085,-2.21679 0.033165,-1.06379 0.012694,-1.93417 -0.045492,-1.93417 -0.058186,0 -0.2307061,0.65723 -0.3833787,1.4605 -0.6524962,3.43307 -1.2420879,4.43884 -2.2773001,3.88481 -0.6188456,-0.33119 -0.6915107,-1.08434 -0.1481295,-1.53531 0.20955,-0.17391 0.381,-0.5298 0.381,-0.79087 0,-0.26107 0.5633354,-3.3046 1.2518567,-6.7634 0.6885211,-3.4588 1.6707675,-8.403275 2.1827692,-10.987725 0.512002,-2.58445 0.9520616,-5.582379 0.9779086,-6.662065 0.04875,-2.036329 0.292292,-2.609959 0.9938016,-2.340764 0.622828,0.239001 0.766883,1.897186 0.641212,7.380851 -0.06221,2.714523 -0.02633,4.904331 0.07974,4.866238 0.21323,-0.07658 5.053617,-4.142767 7.401879,-6.21798 0.823217,-0.727497 1.721859,-1.394163 1.996983,-1.481486 0.594202,-0.188592 1.315608,0.3302 1.130378,0.812899 -0.08231,0.214503 0.05721,0.340307 0.377413,0.340307 0.2794,0 0.57675,0.179161 0.660778,0.398135 0.374866,0.976884 -1.222123,2.734213 -5.933546,6.529285 -1.648996,1.328275 -3.545139,2.978491 -4.21365,3.667148 l -1.215475,1.252103 0.537516,0.683341 c 0.77254,0.982127 2.232307,4.465443 2.92221,6.973023 0.6735,2.44795 2.148378,4.88146 4.373054,7.2154 0.757771,0.79499 1.302936,1.56652 1.211477,1.7145 -0.214198,0.34658 -1.136745,0.33247 -1.787308,-0.0274 z m -2.921,-22.960278 c 3.132594,-2.339228 5.879885,-4.967012 5.370442,-5.136827 -0.188808,-0.06294 -1.045772,0.563895 -1.904365,1.392959 -1.84747,1.783933 -4.410774,3.997772 -6.958576,6.009884 -1.012826,0.799874 -1.841501,1.645567 -1.841501,1.879318 0,0.287576 0.431198,0.0081 1.333501,-0.864388 0.733425,-0.709165 2.533649,-2.185591 4.000499,-3.280946 z M 186.08946,59.353912 c -0.72032,-0.1686 -1.60138,-1.80794 -1.62687,-3.02704 -0.0299,-1.42868 0.52437,-1.93195 2.00738,-1.82274 0.9001,0.0663 1.0675,0.18554 1.47291,1.04937 0.38716,0.82496 0.4114,1.11746 0.15788,1.905 -0.45779,1.42213 -1.16917,2.09251 -2.0113,1.89541 z m 1.5889,-9.28351 c -0.13822,-0.17462 -0.32812,-0.92153 -0.42202,-1.65979 -0.33424,-2.62816 2.47129,-9.673665 9.0923,-22.833391 3.40634,-6.770336 5.49376,-11.493957 5.84195,-13.219759 0.0782,-0.387505 0.20749,-1.492069 0.28736,-2.454588 0.17983,-2.167238 0.6916,-3.265939 1.46967,-3.15521 0.53778,0.07653 0.55684,0.18357 0.55684,3.127244 0,3.039351 -0.003,3.056735 -1.21291,6.126527 -0.66711,1.69319 -3.01351,6.66524 -5.21423,11.049 -4.47852,8.921064 -6.72717,13.866662 -8.0406,17.684206 -0.75726,2.201031 -0.85723,2.748111 -0.67772,3.708951 0.11959,0.64015 0.11177,1.30363 -0.0181,1.5357 -0.27131,0.4848 -1.30604,0.54151 -1.66254,0.0911 z M 112.6919,39.857066 c -0.2426,-0.292318 -0.22041,-0.754948 0.10481,-2.184839 0.22692,-0.997699 0.34678,-2.021352 0.26634,-2.274783 -0.26117,-0.822876 0.34883,-0.797265 0.778,0.03266 0.4484,0.867118 0.52584,1.956681 0.23549,3.313541 -0.29909,1.397701 -0.80865,1.807446 -1.38464,1.113419 z m -2.62432,-1.059713 c -0.098,-0.09796 -0.17811,-1.244912 -0.17811,-2.548781 0,-1.888362 0.074,-2.370665 0.36388,-2.370665 0.48195,0 0.60103,0.497276 0.69792,2.914573 0.0669,1.668867 0.0119,2.039435 -0.31219,2.104281 -0.21636,0.04329 -0.47354,-0.0015 -0.5715,-0.09941 z"
       id="path33"
       inkscape:connector-curvature="0" />
  </g>
</svg>
